<svg xmlns="http://www.w3.org/2000/svg" xmlns:xlink="http://www.w3.org/1999/xlink" viewBox="0 0 64 64"><defs><rect id="a" x="0" y="0" width="64" height="64" rx="10"/><rect id="b" x="0" y="0" width="64" height="64" rx="10"/></defs><g fill="none" fill-rule="evenodd"><rect width="64" height="64" rx="10"/><mask id="c" fill="#fff"><use xlink:href="#b"/></mask><use fill-opacity=".91" fill="#FFD800" xlink:href="#b"/><g mask="url(#c)" fill="#000" fill-rule="nonzero"><path d="M32.327 48.864c.855 0 1.701-.117 2.539-.351a7.428 7.428 0 0 0 2.25-1.04 5.471 5.471 0 0 0 1.597-1.69c.402-.668.602-1.444.602-2.328 0-1.057-.275-1.997-.824-2.82-.55-.824-1.27-1.578-2.16-2.263a21.597 21.597 0 0 0-3.049-1.937 256.718 256.718 0 0 0-3.494-1.82 71.303 71.303 0 0 1-3.494-1.911 17.346 17.346 0 0 1-3.049-2.236 10.672 10.672 0 0 1-2.159-2.756c-.55-1.014-.824-2.18-.824-3.497 0-1.318.248-2.54.746-3.667a8.154 8.154 0 0 1 2.185-2.925c.96-.823 2.142-1.469 3.546-1.937 1.405-.468 3.015-.702 4.83-.702 1.64 0 3.105.173 4.396.52 1.291.347 2.425.858 3.403 1.534a9.695 9.695 0 0 1 2.486 2.496c.68.988 1.23 2.132 1.649 3.432l-2.984 1.353a13.599 13.599 0 0 0-1.335-2.9 9.16 9.16 0 0 0-1.936-2.249 8.176 8.176 0 0 0-2.605-1.443c-.985-.338-2.098-.507-3.337-.507-1.099 0-2.058.152-2.879.455-.82.304-1.504.702-2.054 1.196a4.865 4.865 0 0 0-1.23 1.664 4.642 4.642 0 0 0-.406 1.885c0 .902.28 1.73.838 2.484.558.754 1.3 1.464 2.224 2.132a26.956 26.956 0 0 0 3.154 1.937c1.178.624 2.377 1.256 3.599 1.898a84.83 84.83 0 0 1 3.599 2.002 19.924 19.924 0 0 1 3.153 2.275c.925.823 1.667 1.725 2.225 2.704.558.98.838 2.076.838 3.29 0 1.369-.262 2.656-.786 3.86-.523 1.205-1.308 2.254-2.355 3.146-1.047.893-2.347 1.6-3.9 2.12s-3.359.78-5.418.78c-1.675 0-3.166-.182-4.475-.546-1.309-.364-2.465-.893-3.468-1.586a10.5 10.5 0 0 1-2.578-2.536c-.715-.996-1.3-2.136-1.754-3.419l3.115-1.274c.366 1.127.86 2.132 1.479 3.016a9.855 9.855 0 0 0 2.159 2.25 9.414 9.414 0 0 0 2.735 1.417c1.003.329 2.072.494 3.206.494Z"/></g></g></svg>
